<svg xmlns="http://www.w3.org/2000/svg" viewBox="0 0 18.95 13.41"><defs><style>.cls-1{fill:#666;}</style></defs><title>Ativo 4</title><g id="Camada_2" data-name="Camada 2"><g id="Camada_1-2" data-name="Camada 1"><path class="cls-1" d="M10,2.17V.53a.53.53,0,1,0-1.05,0V2.17a.53.53,0,1,0,1.05,0Z"/><path class="cls-1" d="M6.62,3.07a.27.27,0,0,0,.13,0,.55.55,0,0,0,.38-.65L6.71.8a.53.53,0,1,0-1,.27l.42,1.6A.58.58,0,0,0,6.62,3.07Z"/><path class="cls-1" d="M4,4.17a.5.5,0,0,0,.25-.06.52.52,0,0,0,.19-.72L3.59,2a.52.52,0,1,0-.91.53l.82,1.43A.58.58,0,0,0,4,4.17Z"/><path class="cls-1" d="M1.67,5.92a.54.54,0,0,0,.38-.15.51.51,0,0,0,0-.74L.89,3.87a.51.51,0,0,0-.74,0,.51.51,0,0,0,0,.74L1.32,5.77A.6.6,0,0,0,1.67,5.92Z"/><path class="cls-1" d="M12.31,3.07a.51.51,0,0,0,.51-.4l.42-1.6a.53.53,0,0,0-1-.27l-.42,1.6a.53.53,0,0,0,.38.65Z"/><path class="cls-1" d="M16.06,1.75a.52.52,0,0,0-.72.19l-.82,1.43a.52.52,0,0,0,.19.72.56.56,0,0,0,.25.06.51.51,0,0,0,.46-.27l.82-1.43A.5.5,0,0,0,16.06,1.75Z"/><path class="cls-1" d="M18,3.85,16.88,5a.53.53,0,0,0,.76.74l1.16-1.16a.51.51,0,0,0,0-.74A.53.53,0,0,0,18,3.85Z"/><path class="cls-1" d="M18,8.76a.51.51,0,0,0,0-.55A10,10,0,0,0,9.47,3.54,10.05,10.05,0,0,0,.92,8.19a.51.51,0,0,0,0,.55,10,10,0,0,0,8.55,4.67A10.05,10.05,0,0,0,18,8.76Zm-8.55,3.6A9,9,0,0,1,2,8.49a9,9,0,0,1,7.48-3.9,9,9,0,0,1,7.48,3.87A9,9,0,0,1,9.47,12.36Z"/><path class="cls-1" d="M9.47,5.83A2.63,2.63,0,1,0,12.1,8.47,2.63,2.63,0,0,0,9.47,5.83Zm0,4.21A1.58,1.58,0,1,1,11,8.47,1.59,1.59,0,0,1,9.47,10Z"/></g></g></svg>