<svg xmlns="http://www.w3.org/2000/svg" viewBox="0 0 94.94 72.57"><defs><style>.cls-1{fill:#443049;}</style></defs><title>Ativo 2</title><g id="Camada_2" data-name="Camada 2"><g id="Camada_1-2" data-name="Camada 1"><path class="cls-1" d="M63.17,55.41a27.77,27.77,0,1,1,24-13.9l7.78,7.78-.82,1c-.26.31-.52.61-.81.9a14.54,14.54,0,0,1-18.53,1.68A27.35,27.35,0,0,1,63.17,55.41Zm0-52.67a25,25,0,0,0,0,49.93A24.69,24.69,0,0,0,74.32,50l.78-.39.68.53a11.8,11.8,0,0,0,15.4-.76l-7.49-7.49.58-.93A24.93,24.93,0,0,0,63.17,2.74Z"/><path class="cls-1" d="M31.77,72.57A27.35,27.35,0,0,1,20.16,70,14.54,14.54,0,0,1,1.63,68.31c-.29-.29-.55-.59-.81-.9l-.81-1,7.78-7.78a27.69,27.69,0,1,1,24,13.9ZM19.85,66.79l.78.39a24.69,24.69,0,0,0,11.15,2.65A25,25,0,1,0,10.66,58.15l.58.93L3.76,66.56a11.8,11.8,0,0,0,15.4.76Z"/></g></g></svg>