<svg xmlns="http://www.w3.org/2000/svg" viewBox="0 0 51.84 56.65"><defs><style>.cls-1{fill:#6a6275;}</style></defs><title>Ativo 3</title><g id="Camada_2" data-name="Camada 2"><g id="Camada_1-2" data-name="Camada 1"><path class="cls-1" d="M51.84,13.43a27.88,27.88,0,0,0-.39-4.17l-.08-.56a1.84,1.84,0,0,0-1.91-1.49H42.19l0-.48c-.09-1.79-.26-3.62-.4-5A2.05,2.05,0,0,0,39.85,0H12a2.06,2.06,0,0,0-1.91,1.76c-.13,1.35-.31,3.18-.4,5l0,.48H2.38A1.84,1.84,0,0,0,.47,8.73,29,29,0,0,0,0,13.43c0,10,6.63,18.39,15.08,19.12l.25,0,.13.2c2.33,3.64,5.16,6,8.18,6.76l.38.09V52.84H18.71a1.91,1.91,0,0,0,0,3.81H33.13a1.91,1.91,0,0,0,0-3.81H27.82V39.63l.38-.09c3-.78,5.85-3.12,8.18-6.76l.13-.2.25,0C45.22,31.82,51.84,23.42,51.84,13.43ZM12,27.89c-4.93-2.18-8.24-8-8.24-14.46V11H9.64l0,.48a50,50,0,0,0,3.05,15.77l.43,1.12ZM25.92,36c-6,0-12.51-10.82-12.51-26.92a32.05,32.05,0,0,1,.25-4.88l.06-.43h24.4l.07.43a33.38,33.38,0,0,1,.24,4.88C38.43,25.21,32,36,25.92,36ZM39.8,27.89l-1.1.49.43-1.12a49.67,49.67,0,0,0,3-15.77l0-.48H48v2.42C48,19.89,44.73,25.71,39.8,27.89Z"/></g></g></svg>