<svg xmlns="http://www.w3.org/2000/svg" viewBox="0 0 93.74 73.58"><defs><style>.cls-1{fill:#443049;}</style></defs><title>Ativo 3</title><g id="Camada_2" data-name="Camada 2"><g id="Camada_1-2" data-name="Camada 1"><path class="cls-1" d="M15.15,73.58H13.61V41.87L20,41.65H32.08l-7,26.84C24.29,71.48,20.21,73.58,15.15,73.58Zm1.12-29.14V70.87c3.45-.26,5.88-1.71,6.24-3.06l6.13-23.5H20Z"/><path class="cls-1" d="M50.07,42.76H48.74V18.22h1.33a12.27,12.27,0,0,1,0,24.54ZM51.4,21V40a9.61,9.61,0,0,0,0-19Z"/><path class="cls-1" d="M45.45,53.81H42.78a9.51,9.51,0,0,0-9.5-9.51H13.81a13.81,13.81,0,1,1,0-27.63H33.29a9.51,9.51,0,0,0,9.5-9.51h2.66ZM13.81,19.34a11.15,11.15,0,1,0,0,22.3H33.29a12.27,12.27,0,0,1,9.5,4.57V14.76a12.14,12.14,0,0,1-9.5,4.58Z"/><rect class="cls-1" x="20.19" y="18.01" width="2.66" height="24.29"/><path class="cls-1" d="M47.09,60.17a4.31,4.31,0,0,1-4.3-4.3V4.3a4.31,4.31,0,0,1,8.62,0V55.86A4.31,4.31,0,0,1,47.09,60.17Zm0-57.5A1.64,1.64,0,0,0,45.45,4.3V55.86a1.65,1.65,0,0,0,3.29,0V4.3a1.65,1.65,0,0,0-1.65-1.64Z"/><path class="cls-1" d="M80.26,8.1a1.33,1.33,0,0,1-.81-2.39L86.59.27A1.33,1.33,0,0,1,88.2,2.39L81.06,7.83A1.33,1.33,0,0,1,80.26,8.1Z"/><path class="cls-1" d="M63.53,20.83a1.33,1.33,0,0,1-.81-2.39l10.42-7.93a1.33,1.33,0,0,1,1.61,2.12L64.34,20.56A1.33,1.33,0,0,1,63.53,20.83Z"/><path class="cls-1" d="M65.66,27.61a1.33,1.33,0,0,1-.6-2.52l8-4.06a1.33,1.33,0,1,1,1.2,2.37l-8,4.06A1.32,1.32,0,0,1,65.66,27.61Z"/><path class="cls-1" d="M80.73,20a1.33,1.33,0,0,1-.6-2.52l11.68-5.92A1.33,1.33,0,1,1,93,13.91L81.33,19.83A1.32,1.32,0,0,1,80.73,20Z"/><path class="cls-1" d="M87.4,60.05a1.33,1.33,0,0,1-.81-.27l-7.14-5.44a1.33,1.33,0,1,1,1.61-2.12l7.14,5.44a1.33,1.33,0,0,1-.81,2.39Z"/><path class="cls-1" d="M73.95,49.81a1.32,1.32,0,0,1-.81-.27L62.73,41.61a1.33,1.33,0,1,1,1.61-2.12l10.42,7.93a1.33,1.33,0,0,1-.81,2.39Z"/><path class="cls-1" d="M73.66,39.16a1.32,1.32,0,0,1-.6-.14l-8-4.06a1.33,1.33,0,0,1,1.2-2.37l8,4.06a1.33,1.33,0,0,1-.6,2.52Z"/><path class="cls-1" d="M92.41,48.66a1.32,1.32,0,0,1-.6-.14L80.13,42.6a1.33,1.33,0,1,1,1.2-2.37L93,46.14a1.33,1.33,0,0,1-.6,2.52Z"/><path class="cls-1" d="M75.57,31.4H70.76a1.33,1.33,0,1,1,0-2.66h4.82a1.33,1.33,0,0,1,0,2.66Z"/><path class="cls-1" d="M90.9,31.4H80.73a1.33,1.33,0,1,1,0-2.66H90.9a1.33,1.33,0,0,1,0,2.66Z"/></g></g></svg>