<svg xmlns="http://www.w3.org/2000/svg" viewBox="0 0 97.03 61.84"><defs><style>.cls-1{fill:#443049;}</style></defs><title>Ativo 4</title><g id="Camada_2" data-name="Camada 2"><g id="Camada_1-2" data-name="Camada 1"><path class="cls-1" d="M29,61.39a1.37,1.37,0,0,0,1,.44h.22a1.34,1.34,0,0,0,1.34-1.24,17.05,17.05,0,0,1,34-.1,1.46,1.46,0,0,0,1.45,1.34A1.48,1.48,0,0,0,68,61.36a1.42,1.42,0,0,0,.37-1.1,20.07,20.07,0,0,0-13-16.93l-.4-.15.36-.24A12.37,12.37,0,0,0,60.92,32.4a12.57,12.57,0,0,0-11.8-12.19,12.4,12.4,0,0,0-7.44,22.73l.36.24-.4.15a20,20,0,0,0-13,17A1.33,1.33,0,0,0,29,61.39ZM41.82,39.3a9.47,9.47,0,1,1,8.3,2.65,9.89,9.89,0,0,1-1.62.13A9.39,9.39,0,0,1,41.82,39.3Z"/><path class="cls-1" d="M65.35,36.59a17.17,17.17,0,0,1,17,15.48,1.46,1.46,0,0,0,1.45,1.35,1.48,1.48,0,0,0,1.09-.48,1.42,1.42,0,0,0,.37-1.1,20.07,20.07,0,0,0-13-16.93l-.4-.15.36-.24a12.39,12.39,0,1,0-16.4-18.21,1.36,1.36,0,0,0-.29,1.13,1.23,1.23,0,0,0,.64.86l.27.15a1.33,1.33,0,0,0,1.68-.34,9.56,9.56,0,0,1,1.5-1.44,9.43,9.43,0,0,1,7.17-1.86,9.48,9.48,0,0,1-1.42,18.85l-.68,0a16.14,16.14,0,0,1-.48,3h0C64.6,36.63,65,36.59,65.35,36.59Z"/><path class="cls-1" d="M38.94,18.11a1.33,1.33,0,0,0,1.68.34l.27-.15a1.23,1.23,0,0,0,.64-.86,1.36,1.36,0,0,0-.29-1.13,12.43,12.43,0,0,0-9.58-4.53,12.67,12.67,0,0,0-1.73.12,12.4,12.4,0,0,0-5.09,22.62l.36.24-.4.15a20.07,20.07,0,0,0-13,16.93,1.42,1.42,0,0,0,.37,1.1,1.48,1.48,0,0,0,1.09.48,1.46,1.46,0,0,0,1.45-1.35A17.12,17.12,0,0,1,29.64,36.73a14.24,14.24,0,0,1,3.15-.06h0a16.19,16.19,0,0,1-.48-3l-.68,0a9.47,9.47,0,1,1,7.26-15.55Z"/><path class="cls-1" d="M94.11,40.3a1.46,1.46,0,0,0,1.45,1.34,1.48,1.48,0,0,0,1.09-.48,1.42,1.42,0,0,0,.37-1.1A20.07,20.07,0,0,0,84,23.13l-.4-.15.36-.24A12.39,12.39,0,1,0,67.57,4.53a1.36,1.36,0,0,0-.29,1.13,1.23,1.23,0,0,0,.64.86l.27.15a1.33,1.33,0,0,0,1.68-.34,9.56,9.56,0,0,1,1.5-1.44,9.46,9.46,0,1,1,9.85,16,13.94,13.94,0,0,1,.2,2.33,13.63,13.63,0,0,1-.17,2.08A17,17,0,0,1,94.11,40.3Z"/><path class="cls-1" d="M25.66,4.9a9.56,9.56,0,0,1,1.5,1.44,1.33,1.33,0,0,0,1.68.34l.27-.15a1.23,1.23,0,0,0,.64-.86,1.36,1.36,0,0,0-.29-1.13A12.43,12.43,0,0,0,19.89,0a12.67,12.67,0,0,0-1.73.12,12.4,12.4,0,0,0-5.09,22.62l.36.24-.4.15A20.07,20.07,0,0,0,0,40.06a1.42,1.42,0,0,0,.37,1.1,1.48,1.48,0,0,0,1.09.48A1.46,1.46,0,0,0,2.92,40.3a17,17,0,0,1,12.86-15,13.57,13.57,0,0,1-.17-2.08,13.94,13.94,0,0,1,.2-2.33,9.46,9.46,0,1,1,9.85-16Z"/><path class="cls-1" d="M48.52,0A12.37,12.37,0,0,0,37.08,7.64a1.47,1.47,0,0,0,.78,1.94,1.42,1.42,0,0,0,1.13,0,1.5,1.5,0,0,0,.81-.81,9.41,9.41,0,0,1,17.43,0,1.5,1.5,0,0,0,.81.81,1.39,1.39,0,0,0,1.08,0,1.48,1.48,0,0,0,.82-2A12.37,12.37,0,0,0,48.52,0Z"/></g></g></svg>