<svg xmlns="http://www.w3.org/2000/svg" xmlns:xlink="http://www.w3.org/1999/xlink" viewBox="0 0 23.28 23.28"><defs><style>.cls-1{fill:url(#radial-gradient);}.cls-2{fill:#fff;}</style><radialGradient id="radial-gradient" cx="3.98" cy="18.24" fx="-10.620846160826693" r="47.33" gradientTransform="translate(-9.83 11.57) rotate(-49.2) scale(1 0.81)" gradientUnits="userSpaceOnUse"><stop offset="0" stop-color="#f6ed30"/><stop offset="0.06" stop-color="#f5d938"/><stop offset="0.18" stop-color="#f2a54b"/><stop offset="0.36" stop-color="#ed536b"/><stop offset="0.45" stop-color="#ea267c"/><stop offset="0.56" stop-color="#b82680"/><stop offset="0.71" stop-color="#752586"/><stop offset="0.84" stop-color="#44258a"/><stop offset="0.94" stop-color="#26258c"/><stop offset="1" stop-color="#1b258d"/></radialGradient></defs><title>Ativo 3</title><g id="Camada_2" data-name="Camada 2"><g id="Camada_1-2" data-name="Camada 1"><rect class="cls-1" width="23.28" height="23.28" rx="3.98" ry="3.98"/><path class="cls-2" d="M15.35,20.88H7.93a6,6,0,0,1-6-6V8.37a6,6,0,0,1,6-6h7.41a6,6,0,0,1,6,6v6.53A6,6,0,0,1,15.35,20.88ZM7.93,3.73A4.65,4.65,0,0,0,3.29,8.37v6.53a4.65,4.65,0,0,0,4.64,4.64h7.41A4.65,4.65,0,0,0,20,14.91V8.37a4.65,4.65,0,0,0-4.64-4.64Z"/><path class="cls-2" d="M11.64,17A5.31,5.31,0,1,1,17,11.64,5.32,5.32,0,0,1,11.64,17Zm0-9.3a4,4,0,1,0,4,4A4,4,0,0,0,11.64,7.66Z"/><circle class="cls-2" cx="16.87" cy="6.49" r="1.1"/></g></g></svg>