<svg xmlns="http://www.w3.org/2000/svg" viewBox="0 0 348.31 91.87"><defs><style>.cls-1{fill:#fff;}.cls-2{fill:#e1aa5e;}</style></defs><title>Ativo 2</title><g id="Camada_2" data-name="Camada 2"><g id="Layer_2" data-name="Layer 2"><path class="cls-1" d="M0,4.05q11,0,11,7.35h.92V8.65h1.84q3.68,10.76,6.43,29.4h-.92l.92.91v8.27h1.84l-.92.92v4.59h.92q3.61-9.12,14.7-24.8l.92.92L39.5,26.1h-.92l-1.83,1.84V27l10.1-11h1.84l3.68,3.67-4.6,5.51h2.76q0-2.87,5.51-6.43v2.76q-3.67.43-3.67,2.75H54.2A2.44,2.44,0,0,1,57,21.51v2.75Q52.27,27,43.18,40.8L23.89,75.71H22.05l-.92-.92q-2.76,0-2.76,3.68H16.54q-6.43,0-6.43-6.43L11,69.28,9.19,71.12v2.76l.92.91v.92l-.92.92H7.35L6.43,72l.92-2.76H6.43l.92-.92V62.85Q6.21,12.32.92,12.32l.92-2.75ZM8.27,31.61v4.6h.92v-4.6ZM9.19,39V49.07h.92V39Zm16.53.92v.92L23,44.48v-.92ZM23,65.61l.92.92h.91L26.64,61Q24.75,61.44,23,65.61Zm3.67-29.4h.92V39l-.92.92h-.92V39Zm.92,22v.92l2.76-2.76V55.5ZM37.67,21.51v.92l-8.27,11v-.92Q31.5,27.34,37.67,21.51Zm6.43-6.43V16l-3.68,3.67H39.5C40.94,17,42.48,15.47,44.1,15.08ZM45,27l-2.76,4.59h.92l2.76-3.67V27Z"/><path class="cls-1" d="M98.09,3.94a35.13,35.13,0,0,1,20.21,6.44l-.92.91v.92l3.67,5.52h-1.84l-.91-.92h-.92L120.13,37h.92c0-3.06.62-4.6,1.84-4.6V36.1q0,5.19-9.19,23.89h.92q-6.48,8.91-19.29,16.53l-4.59.92h-.92Q68,77.44,62.26,60l-3.68-5.52.92-.91-.92-6.44V45.29q0-7.62,14.7-26.65v.92a84.15,84.15,0,0,0-11,20.21v.92h.91Q66.53,27.24,88,6.7l-6.43,3.68h-.92Q80.63,6.17,98.09,3.94ZM61.34,45.29v7.35h.92V45.29ZM73.28,32.42l-2.76,5.52h.92l2.76-5.52ZM93.49,19.56l-.92-.92v.92l.92.92L87.06,26q-7.62,0-14.7,25.73,0,7.35,8.27,12.86h.92q10,0,23-21.13,4.59-10.05,4.59-14.7V21.4q0-2.53-9.19-3.67H99l-.91.91h-.92v-.91ZM75.12,68.25v.92l4.59,2.76V71ZM104.52,48l-3.68,4.6h.92l3.68-4.6Zm4.59-10.1-3.67,9.18h2.75L111,40.69,110,37.94Zm6.43,3.67-.92,2.76v1.84h.92l.92-3.68v-.92Zm4.59-19.29H122v4.59h-1.84Z"/><path class="cls-1" d="M180.55,2.54l2.76.92V5.3h-2.76l1.84,2.75q-2,4.59-14.7,4.6l-6.43.91-.92,2.76h.92q-2.76,6.54-11,58.8L153,87.06h-.92q-2.06,0-3.67-9.19l.92-9.18v-.92h-.92v1.84q-2.76,0-2.76,1.83v.92l1.84,14.7V88h-1.84L142,85.22l-.92.92h-.92q-3.67-7.94-3.67-13.78l.91.92h.92l-1.83-6.43,2.75-.92V61.34h-1.84v-.92c1.84,0,2.76-.61,2.76-1.84v-.92h-1.84q0-7.35,2.76-7.35V38.37q1.45-1.3,3.67-19.29l-6.43.92-12.86-.92v-.92l4.59-.92v.92l.92-.92h13.78V14.48L130,16.32l-.91-.92h-.92l-5.52.92-2.75-1.84.92-4.59L119.92,9q0-4.59,11-4.59Zm-39.5,54.2L139.21,77h1.84l-.92-4.6V70.52L142,67.77h-.92l.92-.92v-.92l-.92-.92v-.92l1.84-3.67L142,56.74ZM175,5.3v.91h3.68V5.3Z"/><path class="cls-1" d="M210.71,0q.58,2.76,7.35,2.76l7.35,32.15h6.43v.92l-5.51.92v.92c1.83,0,2.75.61,2.75,1.83h7.35v.92q0,2.05-9.18,3.68l1.83,5.51-.92,2.76.92,5.51-.92.92h.92l-.92.92.92,11v5.51l-.92-.92h-.91L230,89.11h-1.84c0-1.83-.61-2.75-1.83-2.75v.92l.92,2.75h-.92l-.92-.92h-.92c0,1.84-.61,2.76-1.84,2.76l-4.59-15.62h-.92v3.68h-.92l-1.84-11,2.76,1.84v-.92c-.51-5.51-1.42-8.27-2.76-8.27l.92-.92V57.88h-1.84v2.75h-.91V57l.91-.92h-.91l-.92.92V53.29h.92l.91.91h.92l-.92-.91V47.77l-20.21,4.6V54.2l6.43-1.83,3.68.92,4.59-.92V54.2q-19.29,3.46-19.29,9.19-2.43,10.11-5.51,12.86v1.84h-2.76l-.92-.92h-.92v.92l-2.75-1.84,1.83-5.51h-.91q-2.76,0-2.76,7.35l-1.84-1.84.92-5.51L170.29,68,185.9,30.32h.92c0,1.83.61,2.75,1.84,2.75l.92-4.59-.92.92h-.92V25.72l.92-4.59.92.92h.92l-.92-.92v-.92l1.84-3.67h.91l.92.92h.92v-.92c0-1.23-.92-1.84-2.75-1.84L196,1.84h3.67l-.92.92v.91Q205.15,0,210.71,0ZM184.07,39.5l-.92,3.68h.92l1.83-3.68Zm2.75-4.59-.92.92v1.84h.92l.92-2.76Zm5.51,3.68-.91,3.67h.91l.92-.92V38.59Zm4.6-12-1.84,6.43-.92-.92h-.92l.92,3.68h.92l2.76-8.27v-.92Zm8.27-5.51-7.35,19.29h1.83q9.19,0,10.11-5.51l-3.68-13.78Zm-5.52,21.13v.92h1.84q8.26-.91,8.27-2.76h-.92Zm12.87,20.21h1.83V68h-.92Zm3.67,9.19V73.5l2.76-.92V70.74Zm9.19-2.76v1.84l.92,3.68h.92V72.58l-.92-3.68Z"/><path class="cls-2" d="M272.49,24.3V16.35H256.58V32.26h23.87a7.72,7.72,0,0,1,7.85,7.85V71.82a7.9,7.9,0,0,1-7.85,8H248.73a8.08,8.08,0,0,1-7.95-8V56h15.8V64h15.91V48.06H248.73a7.59,7.59,0,0,1-5.59-2.26,7.72,7.72,0,0,1-2.36-5.69V8.39a7.63,7.63,0,0,1,2.36-5.59A7.59,7.59,0,0,1,248.73.54h31.72a7.72,7.72,0,0,1,7.85,7.85V24.3Z"/><path class="cls-2" d="M348.31,8.39V40.11a7.94,7.94,0,0,1-2.25,5.69,7.82,7.82,0,0,1-5.6,2.26H316.6V79.78H300.79V.54h39.67a7.7,7.7,0,0,1,7.85,7.85ZM316.6,32.26h15.91V16.35H316.6Z"/></g></g></svg>