<svg xmlns="http://www.w3.org/2000/svg" viewBox="0 0 23 23"><defs><style>.cls-1{fill:#e5e5e5;}.cls-2{fill:#827f7a;}</style></defs><title>Ativo 5</title><g id="Camada_2" data-name="Camada 2"><g id="Camada_1-2" data-name="Camada 1"><circle class="cls-1" cx="11.5" cy="11.5" r="11.5"/><path class="cls-2" d="M14.86,13.89a2.44,2.44,0,0,0-1.72.72L8.8,12.13a2.24,2.24,0,0,0,0-1.25l4.35-2.48a2.4,2.4,0,1,0-.67-1.67,2.12,2.12,0,0,0,.09.63L8.21,9.83A2.39,2.39,0,1,0,6.5,13.89a2.44,2.44,0,0,0,1.72-.72l4.35,2.48a2.12,2.12,0,0,0-.09.63,2.39,2.39,0,1,0,2.39-2.39Z"/></g></g></svg>