<svg xmlns="http://www.w3.org/2000/svg" viewBox="0 0 93.74 73.58"><defs><style>.cls-1{fill:#443049;}</style></defs><title>Ativo 3</title><g id="Camada_2" data-name="Camada 2"><g id="Camada_1-2" data-name="Camada 1"><path class="cls-1" d="M62.33,30.49A12.28,12.28,0,0,0,51.4,18.3V4.3a4.31,4.31,0,0,0-8.62,0V7.17a9.51,9.51,0,0,1-9.49,9.51H13.81a13.81,13.81,0,0,0-.2,27.62V73.58h1.54c5.06,0,9.14-2.1,9.93-5.1l6.3-24.17h1.91a9.49,9.49,0,0,1,9.49,9.5v2a4.31,4.31,0,0,0,8.62,0V42.69A12.28,12.28,0,0,0,62.33,30.49Zm-59.67,0A11.15,11.15,0,0,1,13.81,19.34h6.38V41.65H13.81A11.17,11.17,0,0,1,2.66,30.49ZM22.5,67.81c-.35,1.35-2.78,2.8-6.23,3.06V44.44l3.78-.13h8.58Zm19.38-22.6a12,12,0,0,0-8.59-3.56H22.85V19.34H33.29a12.12,12.12,0,0,0,9.49-4.58V46.21A12.12,12.12,0,0,0,41.88,45.21Zm6.86,10.65a1.64,1.64,0,0,1-1.65,1.64,1.66,1.66,0,0,1-1.64-1.64V4.3a1.65,1.65,0,0,1,2.81-1.16,1.69,1.69,0,0,1,.48,1.16V55.86ZM51.4,40V21a9.61,9.61,0,0,1,0,19Z"/><path class="cls-1" d="M80.26,8.1a1.33,1.33,0,0,0,.8-.27L88.2,2.39A1.34,1.34,0,0,0,88.46.52,1.35,1.35,0,0,0,86.59.27L79.45,5.71a1.33,1.33,0,0,0,.81,2.39Z"/><path class="cls-1" d="M63.53,20.83a1.3,1.3,0,0,0,.81-.27l10.42-7.93a1.33,1.33,0,0,0-1.62-2.12L62.73,18.44a1.33,1.33,0,0,0,.8,2.39Z"/><path class="cls-1" d="M74.85,21.63A1.34,1.34,0,0,0,73.06,21l-8,4.06a1.33,1.33,0,0,0-.58,1.78,1.34,1.34,0,0,0,1.79.59l8-4.06A1.32,1.32,0,0,0,74.85,21.63Z"/><path class="cls-1" d="M79.54,19.24a1.33,1.33,0,0,0,1.19.73,1.29,1.29,0,0,0,.6-.14L93,13.91a1.33,1.33,0,1,0-1.2-2.37L80.13,17.46A1.32,1.32,0,0,0,79.54,19.24Z"/><path class="cls-1" d="M81.06,52.23a1.33,1.33,0,0,0-1.61,2.12l7.14,5.43a1.3,1.3,0,0,0,.81.27,1.35,1.35,0,0,0,1.06-.52,1.33,1.33,0,0,0-.26-1.86Z"/><path class="cls-1" d="M64.34,39.49a1.33,1.33,0,1,0-1.61,2.12l10.41,7.93a1.3,1.3,0,0,0,.81.27,1.33,1.33,0,0,0,.81-2.38Z"/><path class="cls-1" d="M64.47,33.17A1.34,1.34,0,0,0,65.05,35l8,4.06a1.42,1.42,0,0,0,.6.14,1.35,1.35,0,0,0,1.19-.73,1.33,1.33,0,0,0-.59-1.79l-8-4A1.33,1.33,0,0,0,64.47,33.17Z"/><path class="cls-1" d="M93,46.14,81.33,40.22a1.33,1.33,0,0,0-1.2,2.38l11.68,5.92a1.42,1.42,0,0,0,.6.14,1.33,1.33,0,0,0,.6-2.52Z"/><path class="cls-1" d="M75.57,28.74H70.76a1.33,1.33,0,1,0,0,2.66h4.81a1.33,1.33,0,0,0,0-2.66Z"/><path class="cls-1" d="M80.73,28.74a1.33,1.33,0,1,0,0,2.66H90.9a1.33,1.33,0,0,0,0-2.66Z"/></g></g></svg>