<svg xmlns="http://www.w3.org/2000/svg" viewBox="0 0 97.03 61.84"><defs><style>.cls-1{fill:#443049;}</style></defs><title>Ativo 4</title><g id="Camada_2" data-name="Camada 2"><g id="Camada_1-2" data-name="Camada 1"><path class="cls-1" d="M55.4,43.33l-.4-.15.36-.24A12.37,12.37,0,0,0,60.92,32.4a12.59,12.59,0,0,0-11.8-12.19,12.4,12.4,0,0,0-7.44,22.73l.35.24-.4.15a20,20,0,0,0-13,17,1.32,1.32,0,0,0,.35,1,1.36,1.36,0,0,0,1,.45h.22a1.35,1.35,0,0,0,1.34-1.24,17.05,17.05,0,0,1,34-.1A1.46,1.46,0,0,0,67,61.84,1.51,1.51,0,0,0,68,61.36a1.46,1.46,0,0,0,.38-1.1A20.08,20.08,0,0,0,55.4,43.33Zm-6.89-1.25A9.5,9.5,0,0,1,39.17,31a9.53,9.53,0,0,1,7.74-7.74,9.48,9.48,0,1,1,3.21,18.68A9.82,9.82,0,0,1,48.51,42.08Z"/><path class="cls-1" d="M72.23,34.91l-.4-.15.36-.24A12.39,12.39,0,1,0,56.8,15.22a11.54,11.54,0,0,0-1,1.09,1.33,1.33,0,0,0-.29,1.13,1.25,1.25,0,0,0,.64.87l.27.14a1.31,1.31,0,0,0,1.68-.34,9.66,9.66,0,0,1,1.5-1.43,9.46,9.46,0,0,1,7.17-1.87,9.57,9.57,0,0,1,8,8.34,9.5,9.5,0,0,1-9.42,10.51l-.68,0a15.31,15.31,0,0,1-.48,3h0c.36,0,.73-.07,1.11-.07a15.32,15.32,0,0,1,2,.14A17.11,17.11,0,0,1,82.33,52.07a1.46,1.46,0,0,0,2.54.87,1.43,1.43,0,0,0,.38-1.1A20.09,20.09,0,0,0,72.23,34.91Z"/><path class="cls-1" d="M32.8,36.66h0a16.94,16.94,0,0,1-.48-3l-.67,0a9.5,9.5,0,0,1-9.42-10.51,9.55,9.55,0,0,1,8-8.34,9.45,9.45,0,0,1,7.17,1.87,9.23,9.23,0,0,1,1.5,1.43,1.31,1.31,0,0,0,1.68.34l.28-.14a1.23,1.23,0,0,0,.63-.87,1.36,1.36,0,0,0-.28-1.13,13.15,13.15,0,0,0-1-1.09,12.34,12.34,0,0,0-8.56-3.44,12.58,12.58,0,0,0-1.73.12,12.4,12.4,0,0,0-5.1,22.62l.36.24-.4.15a20.07,20.07,0,0,0-13,16.93,1.39,1.39,0,0,0,.37,1.1,1.47,1.47,0,0,0,2.55-.87A17.11,17.11,0,0,1,29.64,36.73,14.21,14.21,0,0,1,32.8,36.66Z"/><path class="cls-1" d="M84,23.13,83.61,23l.36-.24A12.39,12.39,0,1,0,68.58,3.44a11.54,11.54,0,0,0-1,1.09,1.36,1.36,0,0,0-.29,1.13,1.21,1.21,0,0,0,.64.86l.27.15a1.33,1.33,0,0,0,1.68-.34,9.66,9.66,0,0,1,1.5-1.43,9.46,9.46,0,1,1,9.85,16,13.6,13.6,0,0,1,.21,2.32,13.4,13.4,0,0,1-.18,2.08,17,17,0,0,1,12.86,15,1.46,1.46,0,0,0,1.45,1.34,1.49,1.49,0,0,0,1.09-.48,1.46,1.46,0,0,0,.38-1.1A20.07,20.07,0,0,0,84,23.13Z"/><path class="cls-1" d="M15.61,23.26a14.65,14.65,0,0,1,.2-2.32,9.47,9.47,0,1,1,9.85-16,9.23,9.23,0,0,1,1.5,1.43,1.32,1.32,0,0,0,1.68.34l.28-.15a1.2,1.2,0,0,0,.63-.86,1.36,1.36,0,0,0-.28-1.13,13.15,13.15,0,0,0-1-1.09A12.34,12.34,0,0,0,19.89,0a12.58,12.58,0,0,0-1.73.12,12.4,12.4,0,0,0-5.1,22.62l.36.24-.4.15A20.05,20.05,0,0,0,0,40.06a1.41,1.41,0,0,0,.37,1.1,1.51,1.51,0,0,0,1.09.48A1.45,1.45,0,0,0,2.92,40.3a17,17,0,0,1,12.86-15A13.3,13.3,0,0,1,15.61,23.26Z"/><path class="cls-1" d="M37.86,9.58a1.44,1.44,0,0,0,1.13,0,1.51,1.51,0,0,0,.81-.82,9.41,9.41,0,0,1,17.43,0,1.53,1.53,0,0,0,.82.82,1.4,1.4,0,0,0,1.08,0,1.47,1.47,0,0,0,.82-2,12.38,12.38,0,0,0-22.87,0A1.47,1.47,0,0,0,37.86,9.58Z"/></g></g></svg>