<svg xmlns="http://www.w3.org/2000/svg" viewBox="0 0 94.94 72.57"><defs><style>.cls-1{fill:#443049;}</style></defs><title>Ativo 2</title><g id="Camada_2" data-name="Camada 2"><g id="Camada_1-2" data-name="Camada 1"><path class="cls-1" d="M87.16,41.51A27.69,27.69,0,1,0,37.33,17.72a27.45,27.45,0,0,0-5.56-.56,27.67,27.67,0,0,0-24,41.51L0,66.45l.81,1c.26.31.53.61.82.9A14.54,14.54,0,0,0,20.16,70a27.31,27.31,0,0,0,11.61,2.58A27.76,27.76,0,0,0,57.61,54.85a27.56,27.56,0,0,0,17.17-2,14.54,14.54,0,0,0,18.53-1.68c.29-.29.56-.59.82-.9l.81-1ZM31.77,69.83a24.73,24.73,0,0,1-11.15-2.66l-.77-.38-.69.53a11.79,11.79,0,0,1-15.4-.76l7.49-7.48-.59-.93a24.94,24.94,0,0,1,25.8-37.8A27.68,27.68,0,0,0,54.93,54.16,25,25,0,0,1,31.77,69.83ZM55.82,51.56A25,25,0,0,1,38.2,27.7,24.62,24.62,0,0,1,39.13,21,24.94,24.94,0,0,1,55.82,51.56Zm20-1.4-.69-.53-.77.39a24.75,24.75,0,0,1-15.84,2.2A27.68,27.68,0,0,0,40,18.41,25,25,0,1,1,84.28,41l-.59.93,7.49,7.48A11.79,11.79,0,0,1,75.78,50.16Z"/></g></g></svg>