<svg xmlns="http://www.w3.org/2000/svg" viewBox="0 0 71.97 76.88"><defs><style>.cls-1{fill:#443049;}</style></defs><title>Ativo 1</title><g id="Camada_2" data-name="Camada 2"><g id="Camada_1-2" data-name="Camada 1"><path class="cls-1" d="M70.58,0H16.85a1.38,1.38,0,0,0-1.38,1.38V7.86A9.29,9.29,0,0,0,14,7.73a10.19,10.19,0,0,0,0,20.38,10.59,10.59,0,0,0,1.5-.12V60.91H1.38a1.37,1.37,0,0,0-1,.41,1.33,1.33,0,0,0-.41,1v5a9.6,9.6,0,0,0,9.59,9.59H63.23A8.75,8.75,0,0,0,72,68.14V1.38A1.38,1.38,0,0,0,70.58,0Zm-64,17.92A7.42,7.42,0,1,1,14,25.34,7.43,7.43,0,0,1,6.55,17.92ZM2.77,67.29V63.68H54.49v4.46a8.7,8.7,0,0,0,2.38,6H9.59A6.83,6.83,0,0,1,2.77,67.29Zm66.43.85a6,6,0,0,1-11.94,0V62.3a1.38,1.38,0,0,0-1.38-1.39H18.24V27.16a10.17,10.17,0,0,0,0-18.48V2.77h51Z"/><path class="cls-1" d="M29.52,16.67H58.65a1.39,1.39,0,0,0,0-2.77H29.52a1.39,1.39,0,0,0,0,2.77Z"/><path class="cls-1" d="M29.52,45.65H58.65a1.39,1.39,0,0,0,0-2.77H29.52a1.39,1.39,0,0,0,0,2.77Z"/><path class="cls-1" d="M29.52,36H58.65a1.39,1.39,0,0,0,0-2.77H29.52a1.39,1.39,0,0,0,0,2.77Z"/><path class="cls-1" d="M29.52,26.33H49.31a1.39,1.39,0,1,0,0-2.77H29.52a1.39,1.39,0,0,0,0,2.77Z"/><path class="cls-1" d="M18.94,13.83a1.13,1.13,0,0,0-1.58.2l-4.17,5.39-2.7-2.7a1.13,1.13,0,0,0-1.6,1.59l3.61,3.61a1.09,1.09,0,0,0,.8.33h.07a1.15,1.15,0,0,0,.82-.43l5-6.41A1.11,1.11,0,0,0,18.94,13.83Z"/></g></g></svg>